<?xml version="1.0" encoding="iso-8859-1"?>
<!-- Generator: Adobe Illustrator 19.0.0, SVG Export Plug-In . SVG Version: 6.00 Build 0)  -->
<svg xmlns="http://www.w3.org/2000/svg" xmlns:xlink="http://www.w3.org/1999/xlink" version="1.1" id="Layer_1" x="0px" y="0px" viewBox="0 0 503.328 503.328" style="enable-background:new 0 0 503.328 503.328;" xml:space="preserve" width="512" height="512">
<g>
	<g>
		<path style="fill:#70D65B;" d="M495.054,86.502c0,72.816-209.798,211.943-285.521,287.666l-40.15-40.15l-39.448-39.448    c43.373-43.373,99.866-194.73,231.183-278.61c0,0-12.28,36.433-36.077,84.69c-0.662,1.236-1.275,2.481-1.849,3.717    c0.623-1.245,1.236-2.481,1.849-3.717C350.292,53.272,438.926,7.497,484.208,7.497c0,0-29.314,51.53-74.784,109.447    C441.675,96.507,495.054,86.502,495.054,86.502z"/>
		<path style="fill:#58B741;" d="M169.383,334.018l-39.448-39.448c43.373-43.373,99.866-194.73,231.183-278.61    C331.556,45.521,161.78,238.541,169.383,334.018z"/>
		<path style="fill:#58B741;" d="M265.03,324.884c35.199-28.921,135.215-47.423,185.089-106.691c0,0-32.57-6.854-59.447,2.371"/>
		<path style="fill:#E6E6E6;" d="M209.532,374.168l-79.598-79.598l-86.195,65.246c-34.724,26.284-38.228,77.186-7.433,107.98l0,0    c30.795,30.795,81.696,27.291,107.98-7.433L209.532,374.168z"/>
		<path style="fill:#CCCCCC;" d="M154.411,319.043l-79.757,71.689C42.523,419.612,24.45,455.936,36.314,467.8    c-30.797-30.797-27.298-81.695,7.425-107.983l86.203-65.243L154.411,319.043z"/>
		<path style="fill:#58B741;" d="M484.209,7.5c-52.835,9.946-155.865,120.787-217.648,192.269    c23.995-33.724,43.591-68.901,58.599-99.342c0.02-0.059,0.049-0.119,0.079-0.168C350.787,53.019,439.046,7.5,484.209,7.5z"/>
		<path style="fill:#58B741;" d="M495.053,86.507c-40.338,20.456-130.822,86.638-159.405,111.968    c27.277-25.439,52.331-54.19,73.785-81.526C441.674,96.512,495.053,86.507,495.053,86.507z"/>
	</g>
	<path d="M451.663,210.854c-0.969-0.204-17.025-3.496-36.21-2.394c8.089-7.415,15.878-14.789,23.261-22.097   c43.554-43.108,63.839-74.839,63.839-99.858c0-2.231-0.993-4.346-2.71-5.771c-1.718-1.425-3.978-2.011-6.172-1.601   c-1.648,0.309-30.795,5.864-59.258,17.143c34.406-46.853,55.919-84.374,56.315-85.07c1.32-2.322,1.307-5.17-0.036-7.479   C489.349,1.42,486.879,0,484.208,0c-23.967,0-59.699,11.945-93.253,31.173c-14.138,8.102-26.864,16.896-37.798,25.998   c9.704-23.014,14.741-37.852,15.068-38.82c1.016-3.015,0.02-6.343-2.487-8.303c-2.506-1.96-5.979-2.126-8.657-0.413   c-33.858,21.628-64.913,48.787-94.94,83.03c-2.731,3.114-2.421,7.853,0.694,10.584c3.111,2.73,7.852,2.42,10.583-0.694   c23.226-26.486,47.044-48.57,72.325-67.013c-17.817,44.795-64.028,148.355-134.839,219.166c-2.929,2.929-2.929,7.678,0,10.606   c1.465,1.464,3.385,2.197,5.304,2.197s3.839-0.732,5.304-2.197c49.532-49.533,86.78-114.041,109.306-159.434   c0.247-0.498,0.485-0.986,0.729-1.48c10.552-19.994,34.665-41.758,66.868-60.212c24.785-14.204,51.326-24.381,71.792-27.868   c-20.854,34.05-83.023,129.919-158.129,193.024c-3.172,2.665-3.583,7.396-0.918,10.567c1.483,1.766,3.607,2.676,5.746,2.675   c1.703,0,3.415-0.577,4.82-1.758c34.411-28.912,66.123-64.489,92.562-98.072c22.388-13.889,55.489-22.82,72.007-26.68   c-11.972,48.28-107.175,125.893-184.655,189.06c-14.256,11.623-28.216,23.004-41.329,33.92c-0.014,0.011-0.029,0.022-0.042,0.033   l0.001,0.001c-19.33,16.093-36.808,31.171-50.684,44.526l-69.238-69.239c12.707-14.566,26.144-36.428,42.636-63.263   c19.593-31.884,41.801-68.022,70.229-104.195c2.56-3.256,1.995-7.972-1.262-10.531c-3.257-2.559-7.972-1.995-10.531,1.263   c-28.963,36.852-52.392,74.976-71.217,105.61c-17.331,28.202-32.316,52.584-45.24,65.666l-85.751,64.91   C20.932,367.673,9.545,388.728,7.971,411.6c-0.842,12.233,1.17,24.333,5.701,35.426L2.971,457.727   c-2.929,2.929-2.929,7.678,0.001,10.606c1.464,1.465,3.384,2.197,5.303,2.197s3.839-0.732,5.304-2.197l7.441-7.442   c1.522,2.293,3.169,4.512,4.935,6.649l-11.529,11.529c-2.929,2.929-2.929,7.677,0,10.606c1.465,1.465,3.384,2.197,5.304,2.197   c1.919,0,3.839-0.732,5.304-2.197l11.529-11.529c2.136,1.766,4.353,3.417,6.645,4.939l-7.439,7.438   c-2.93,2.929-2.93,7.677-0.001,10.606c1.465,1.465,3.384,2.197,5.304,2.197c1.919,0,3.839-0.732,5.303-2.197l10.705-10.705   c9.44,3.856,19.608,5.893,29.969,5.893c1.813,0,3.632-0.062,5.453-0.188c22.873-1.575,43.927-12.962,57.765-31.242   c2.499-3.303,1.849-8.006-1.454-10.506c-3.303-2.5-8.005-1.849-10.507,1.454c-11.219,14.821-28.288,24.054-46.833,25.33   c-18.55,1.282-36.717-5.529-49.86-18.67c-0.001-0.001-0.002-0.002-0.003-0.003c-0.001-0.001-0.002-0.002-0.004-0.003   c-13.143-13.144-19.948-31.317-18.671-49.861c1.276-18.544,10.51-35.615,25.33-46.833l80.985-61.303l70.357,70.358l-41.971,55.447   c-2.499,3.302-1.849,8.006,1.454,10.506c3.303,2.5,8.006,1.849,10.507-1.454l45.593-60.232   c14.165-14.124,33.219-30.637,54.63-48.462c12.462-10.227,34.314-19.37,59.615-29.957c41.985-17.567,94.236-39.43,126.423-77.678   c1.698-2.018,2.212-4.78,1.353-7.273C456.351,213.256,454.244,211.397,451.663,210.854z M323.645,286.863   c-0.27,0.113-0.533,0.223-0.802,0.336c24.318-19.852,48.792-39.994,71.636-59.978c13.835-4.408,29.361-4.37,40.221-3.5   C404.415,253.069,360.033,271.638,323.645,286.863z"/>
</g>















</svg>
